# xmcd CD database file
#
# Track frame offsets:
#	150
#	12895
#	28032
#	39933
#	55623
#	69137
#	85133
#	101099
#	117133
#
# Disc length: 1716 seconds
#
# Revision: 0
# Processed by: cddbd v1.5.2PL0 Copyright (c) Steve Scherf et al.
# Submitted via: CDex 1.70beta2
#
DISCID=6006b209
DTITLE=AA.VV - Brazilian Disco Boogie Sound - Brazilian Disco Boogie Sound
DYEAR=2015
DGENRE=Brasiliana
TTITLE0=Cristina Camargo - Moral Tem Hora (Marcos Valle-P.S.Valle) (1980)
TTITLE1=Solange - Quero Um Baby Seu (Zdanowski-Siqueira) (1980)
TTITLE2=Sandra Sa - Negra Flor (Ferreira-Paulo Cesar-Mendes Jr.) (1982)
TTITLE3=Rabo De Saia - Ripa Na Xulipa (Carlos Imperial-E.Sena) (1979)
TTITLE4=Claudia Telles - Um Momento Qualquer (Don Beito-Reina-Brenda) (1979)
TTITLE5=Carlos Dafè - Escorpiao (Carlos Dafè-Motta) (1978)
TTITLE6=Famks - Labirinto (Olivetti-Jorge-Ronaldo) (1978)
TTITLE7=Painel De Controle - Relax (Olivetti-Jorge-Ronaldo) (1979)
TTITLE8=Paulo Ramos - Gosto Amargo De Vida (Valentim-Confeti-Antonio) (1982)
EXTD=YEAR: 2015
EXTT0=
EXTT1=
EXTT2=
EXTT3=
EXTT4=
EXTT5=
EXTT6=
EXTT7=
EXTT8=
PLAYORDER=
